<svg width="73" height="41" viewBox="0 0 73 41" fill="none" xmlns="http://www.w3.org/2000/svg">
<path d="M6.52344 6.64062H12.3438L18.5156 40H13.3984L12.4805 34.0234H6.38672L5.50781 40H0.371094L6.52344 6.64062ZM11.8945 30.2148L9.55078 13.5938H9.33594L6.97266 30.2148H11.8945ZM20.4688 33.2422C20.4688 32.526 20.5078 31.8685 20.5859 31.2695C20.6771 30.6576 20.8073 30 20.9766 29.2969H24.9023V30.918C24.9023 31.8164 24.9544 32.6107 25.0586 33.3008C25.1758 33.9909 25.3581 34.5768 25.6055 35.0586C25.8659 35.5273 26.2044 35.8854 26.6211 36.1328C27.0508 36.3672 27.5716 36.4844 28.1836 36.4844C29.1471 36.4844 29.8828 36.224 30.3906 35.7031C30.8984 35.1693 31.1523 34.3945 31.1523 33.3789C31.1523 32.8581 31.1133 32.3828 31.0352 31.9531C30.9701 31.5104 30.8464 31.0742 30.6641 30.6445C30.4948 30.2148 30.2604 29.7656 29.9609 29.2969C29.6615 28.8151 29.2773 28.2812 28.8086 27.6953L23.5352 21.4258C22.5977 20.2279 21.875 19.0234 21.3672 17.8125C20.8594 16.5885 20.6055 15.2865 20.6055 13.9062C20.6055 12.7995 20.7747 11.7839 21.1133 10.8594C21.4648 9.9349 21.9661 9.14062 22.6172 8.47656C23.2682 7.79948 24.069 7.27865 25.0195 6.91406C25.9831 6.53646 27.0703 6.34766 28.2812 6.34766C29.7526 6.34766 30.9766 6.55599 31.9531 6.97266C32.9427 7.38932 33.7305 7.9362 34.3164 8.61328C34.9023 9.29036 35.3125 10.0521 35.5469 10.8984C35.7943 11.7318 35.918 12.5716 35.918 13.418C35.918 14.1341 35.8594 14.7982 35.7422 15.4102C35.638 16.0091 35.5143 16.6732 35.3711 17.4023H31.4648V15.8203C31.4648 14.0495 31.2109 12.6953 30.7031 11.7578C30.1953 10.8073 29.3685 10.332 28.2227 10.332C27.2721 10.332 26.5625 10.599 26.0938 11.1328C25.625 11.6536 25.3906 12.3568 25.3906 13.2422C25.3906 13.7109 25.4232 14.1341 25.4883 14.5117C25.5664 14.8893 25.6706 15.2409 25.8008 15.5664C25.944 15.8789 26.1133 16.1849 26.3086 16.4844C26.5039 16.7839 26.7253 17.0964 26.9727 17.4219L32.8516 24.5312C33.9193 25.9245 34.7396 27.2656 35.3125 28.5547C35.8854 29.8307 36.1719 31.1849 36.1719 32.6172C36.1719 33.8021 35.9831 34.8698 35.6055 35.8203C35.2409 36.7708 34.7135 37.5781 34.0234 38.2422C33.3333 38.9062 32.5 39.4206 31.5234 39.7852C30.5469 40.1367 29.4466 40.3125 28.2227 40.3125C26.7122 40.3125 25.4557 40.1107 24.4531 39.707C23.4635 39.3034 22.6693 38.7695 22.0703 38.1055C21.4844 37.4414 21.0677 36.6862 20.8203 35.8398C20.5859 34.9935 20.4688 34.1276 20.4688 33.2422ZM40.4297 6.64062H45.4883V36.0156H52.3828V40H40.4297V6.64062ZM62.7734 40.293C62.2526 40.293 61.6862 40.2474 61.0742 40.1562C60.4753 40.0781 59.8698 39.9023 59.2578 39.6289C58.6589 39.3555 58.0794 38.9714 57.5195 38.4766C56.9727 37.9688 56.4844 37.3047 56.0547 36.4844C55.638 35.6641 55.2995 34.6549 55.0391 33.457C54.7917 32.2461 54.668 30.8073 54.668 29.1406V17.3242C54.668 15.6445 54.7982 14.2122 55.0586 13.0273C55.319 11.8294 55.6641 10.8268 56.0938 10.0195C56.5234 9.19922 57.0182 8.54818 57.5781 8.06641C58.138 7.58464 58.7174 7.22005 59.3164 6.97266C59.9154 6.71224 60.5078 6.54297 61.0938 6.46484C61.6927 6.38672 62.2461 6.34766 62.7539 6.34766C64.082 6.34766 65.1888 6.53646 66.0742 6.91406C66.9727 7.27865 67.6888 7.78646 68.2227 8.4375C68.7695 9.07552 69.1536 9.82422 69.375 10.6836C69.6094 11.543 69.7266 12.4544 69.7266 13.418C69.7266 14.1341 69.6875 14.7982 69.6094 15.4102C69.5443 16.0091 69.4401 16.6732 69.2969 17.4023H65.1953V15.7031C65.1953 13.8672 64.9935 12.4935 64.5898 11.582C64.1862 10.6706 63.5938 10.2148 62.8125 10.2148C62.3438 10.2148 61.9336 10.306 61.582 10.4883C61.2305 10.6706 60.9375 10.9831 60.7031 11.4258C60.4688 11.8555 60.2865 12.4284 60.1562 13.1445C60.0391 13.8607 59.9805 14.7526 59.9805 15.8203V31.0547C59.9805 32.0964 60.026 32.9622 60.1172 33.6523C60.2214 34.3424 60.3841 34.8958 60.6055 35.3125C60.8268 35.7292 61.1133 36.0286 61.4648 36.2109C61.8294 36.3802 62.2656 36.4648 62.7734 36.4648C63.099 36.4648 63.4115 36.3932 63.7109 36.25C64.0104 36.0938 64.2708 35.8594 64.4922 35.5469C64.7266 35.2214 64.9089 34.8177 65.0391 34.3359C65.1823 33.8411 65.2539 33.2617 65.2539 32.5977V29.3359H69.8828V32.4219C69.8828 35.1042 69.2708 37.0833 68.0469 38.3594C66.8229 39.6354 65.0651 40.2799 62.7734 40.293Z" fill="white"/>
</svg>
